<svg width="333" height="132" viewBox="0 0 333 132" fill="none" xmlns="http://www.w3.org/2000/svg">
<path d="M288.363 24.2619C288.789 23.9104 288.85 23.2801 288.498 22.8541C288.147 22.4281 287.517 22.3677 287.091 22.7192L288.363 24.2619ZM238.505 53.1191C238.504 53.6714 238.951 54.1202 239.503 54.1215L248.503 54.143C249.055 54.1443 249.504 53.6976 249.505 53.1454C249.507 52.5931 249.06 52.1443 248.508 52.143L240.508 52.1239L240.527 44.1239C240.528 43.5717 240.082 43.1229 239.529 43.1216C238.977 43.1202 238.528 43.5669 238.527 44.1192L238.505 53.1191ZM287.091 22.7192C265.964 40.1495 248.114 32.2689 243.216 28.1034L241.921 29.6269C247.467 34.3443 266.402 42.381 288.363 24.2619L287.091 22.7192ZM243.216 28.1034C240.686 25.951 238.307 23.0317 237.405 19.7984C236.526 16.6454 237.014 13.0817 240.425 9.42033L238.962 8.05694C235.091 12.211 234.406 16.4897 235.479 20.3358C236.529 24.1016 239.229 27.3379 241.921 29.6269L243.216 28.1034ZM240.425 9.42033C243.82 5.77637 250.032 3.89144 254.876 4.91413C257.263 5.41806 259.233 6.60785 260.41 8.54981C261.588 10.4952 262.068 13.3572 261.142 17.398L263.092 17.8448C264.095 13.4675 263.647 10.0332 262.12 7.51354C260.592 4.99044 258.08 3.54642 255.289 2.95726C249.778 1.79377 242.849 3.88555 238.962 8.05694L240.425 9.42033ZM261.142 17.398C259.263 25.5981 253.722 34.3318 248.57 41.0781C246.005 44.4365 243.559 47.2742 241.754 49.2719C240.852 50.2703 240.111 51.058 239.597 51.595C239.339 51.8634 239.139 52.0691 239.004 52.2071C238.936 52.2761 238.884 52.3281 238.85 52.3626C238.833 52.3799 238.82 52.3927 238.812 52.4011C238.807 52.4053 238.804 52.4083 238.802 52.4103C238.801 52.4113 238.801 52.412 238.8 52.4124C238.8 52.4126 238.8 52.4127 238.8 52.4128C238.8 52.4128 238.8 52.4127 239.505 53.1215C240.211 53.8303 240.211 53.8301 240.211 53.8299C240.212 53.8297 240.212 53.8293 240.212 53.829C240.213 53.8283 240.214 53.8272 240.215 53.8259C240.218 53.8233 240.222 53.8196 240.226 53.8148C240.236 53.8051 240.25 53.7909 240.269 53.7723C240.306 53.7351 240.36 53.6803 240.43 53.6085C240.572 53.4649 240.778 53.2532 241.041 52.9784C241.567 52.4289 242.322 51.6269 243.238 50.6126C245.07 48.5846 247.553 45.704 250.159 42.292C255.348 35.4972 261.113 26.4808 263.092 17.8448L261.142 17.398Z" fill="#F26255"/>
<path d="M59.8704 128.858C60.1402 129.34 60.7496 129.511 61.2315 129.242C61.7133 128.972 61.8852 128.362 61.6153 127.88L59.8704 128.858ZM85.8116 97.3753C86.1304 96.9243 86.0232 96.3003 85.5722 95.9815L78.2227 90.7867C77.7717 90.468 77.1477 90.5752 76.8289 91.0262C76.5102 91.4772 76.6173 92.1012 77.0683 92.42L83.6012 97.0375L78.9836 103.57C78.6649 104.021 78.7721 104.645 79.2231 104.964C79.6741 105.283 80.2981 105.176 80.6169 104.725L85.8116 97.3753ZM61.6153 127.88C58.2269 121.831 58.0709 117.048 59.556 113.254C61.0605 109.41 64.3226 106.391 68.1387 104.062C71.944 101.74 76.1986 100.167 79.5228 99.1736C81.1807 98.678 82.5974 98.3294 83.5974 98.105C84.0973 97.9929 84.4925 97.912 84.7611 97.8593C84.8954 97.833 84.9979 97.8138 85.0661 97.8013C85.1001 97.7951 85.1256 97.7905 85.1421 97.7876C85.1503 97.7861 85.1563 97.7851 85.16 97.7844C85.1619 97.7841 85.1632 97.7839 85.1639 97.7837C85.1642 97.7837 85.1643 97.7837 85.1645 97.7836C85.1645 97.7836 85.1643 97.7837 84.995 96.7981C84.8257 95.8125 84.8252 95.8126 84.8246 95.8127C84.8242 95.8128 84.8234 95.8129 84.8226 95.8131C84.821 95.8133 84.8188 95.8137 84.816 95.8142C84.8105 95.8152 84.8027 95.8165 84.7926 95.8183C84.7724 95.8219 84.7432 95.8272 84.7053 95.8341C84.6295 95.848 84.519 95.8687 84.3765 95.8967C84.0915 95.9525 83.6786 96.0371 83.1597 96.1535C82.1224 96.3862 80.6598 96.7462 78.95 97.2573C75.5391 98.277 71.1051 99.9092 67.097 102.355C63.0997 104.794 59.4235 108.105 57.6936 112.525C55.9441 116.994 56.2574 122.407 59.8704 128.858L61.6153 127.88Z" fill="#F26255"/>
<path d="M77.2221 7.45666C77.6054 7.05902 77.5938 6.42596 77.1961 6.04269C76.7985 5.65941 76.1654 5.67106 75.7821 6.0687L77.2221 7.45666ZM90.0417 44.8756C90.5656 44.7009 90.8487 44.1346 90.674 43.6107L87.8271 35.0728C87.6524 34.5489 87.086 34.2658 86.5621 34.4405C86.0382 34.6152 85.7551 35.1815 85.9298 35.7054L88.4604 43.2947L80.8712 45.8253C80.3473 46 80.0642 46.5663 80.2389 47.0902C80.4136 47.6142 80.9799 47.8973 81.5038 47.7226L90.0417 44.8756ZM75.7821 6.0687C70.6607 11.3822 68.8545 16.5478 69.1861 21.3376C69.5148 26.0864 71.9333 30.2863 74.9035 33.7303C77.8789 37.1802 81.4747 39.9499 84.3073 41.8501C85.7272 42.8027 86.9638 43.5424 87.8476 44.045C88.2897 44.2965 88.644 44.4889 88.8893 44.6192C89.012 44.6844 89.1076 44.7341 89.1732 44.768C89.2061 44.7849 89.2315 44.7978 89.2491 44.8067C89.2579 44.8112 89.2648 44.8147 89.2696 44.8171C89.2721 44.8184 89.274 44.8193 89.2754 44.82C89.2762 44.8204 89.2769 44.8208 89.2772 44.8209C89.2778 44.8212 89.2782 44.8215 89.7254 43.927C90.1725 43.0325 90.1727 43.0326 90.1728 43.0326C90.1726 43.0326 90.1726 43.0325 90.1723 43.0324C90.1717 43.0321 90.1706 43.0316 90.1691 43.0308C90.1659 43.0292 90.1609 43.0266 90.1538 43.0231C90.1398 43.0159 90.118 43.0048 90.0888 42.9898C90.0305 42.9598 89.9425 42.9141 89.8277 42.853C89.5979 42.731 89.2605 42.5478 88.8364 42.3066C87.9878 41.8239 86.7939 41.1099 85.4215 40.1892C82.6693 38.343 79.2328 35.6878 76.418 32.4241C73.5982 29.1544 71.4687 25.352 71.1813 21.1995C70.8967 17.0879 72.4063 12.453 77.2221 7.45666L75.7821 6.0687Z" fill="#F26255"/>
<path d="M114.983 74.0409H99.3827V91.3809H89.6627V46.9809H117.923V55.9809H99.3827V65.2809H114.983V74.0409ZM127.949 91.3809H117.809L133.649 46.9809H143.129L158.909 91.3809H148.589L145.469 82.0209H131.129L127.949 91.3809ZM137.129 64.3809L133.949 73.8609H142.709L139.529 64.3809C139.049 62.8809 138.509 61.1409 138.329 60.0609C138.149 61.0809 137.669 62.7609 137.129 64.3809ZM196.474 95.2209L191.494 89.5809C188.434 91.2009 184.834 92.1009 180.874 92.1009C168.034 92.1009 159.214 82.7409 159.214 69.1809C159.214 55.6209 168.094 46.2009 180.934 46.2009C193.834 46.2009 202.714 55.5609 202.714 69.1209C202.714 75.1809 200.914 80.4609 197.794 84.3609L202.594 89.8209L196.474 95.2209ZM192.454 69.1209C192.454 60.6609 188.134 55.5609 180.994 55.5609C173.794 55.5609 169.474 60.6609 169.474 69.1209C169.474 77.6409 173.794 82.7409 180.994 82.7409C182.434 82.7409 183.694 82.5609 184.894 82.1409L179.074 75.5409L185.194 70.1409L190.954 76.6209C191.914 74.5809 192.454 72.0609 192.454 69.1209ZM206.187 81.9009H214.947C215.067 84.0009 216.627 85.2609 219.447 85.2609C222.327 85.2609 223.647 84.2409 223.647 82.6809C223.647 81.7809 223.167 80.8209 220.947 80.3409L215.427 79.1409C209.907 77.9409 207.207 75.5409 207.207 70.2609C207.207 64.0209 212.547 60.4209 219.747 60.4209C226.707 60.4209 231.567 64.5009 231.567 70.5609H222.807C222.807 68.5209 221.547 67.1409 219.327 67.1409C217.227 67.1409 215.907 68.2209 215.907 69.8409C215.907 71.2209 217.047 72.0009 219.147 72.4809L224.727 73.6809C229.647 74.7609 232.347 77.0409 232.347 81.8409C232.347 88.2609 226.887 92.1609 219.087 92.1609C211.167 92.1609 206.187 87.9609 206.187 81.9009Z" fill="#121212"/>
<path d="M225.869 110.973C225.869 110.973 227.323 109.492 232.851 109.492M232.851 109.492C232.851 109.492 240.123 110.085 241.869 112.159M232.851 109.492C232.851 109.492 231.978 113.344 233.433 118.381M232.851 109.492C232.851 109.492 232.56 105.344 234.305 102.381" stroke="#F26255" stroke-width="2" stroke-linecap="round" stroke-linejoin="round"/>
</svg>
