<svg width="12" height="12" viewBox="0 0 12 12" fill="none" xmlns="http://www.w3.org/2000/svg">
<path d="M5.58329 4.91666C6.77991 4.91666 7.74996 3.94661 7.74996 2.74999C7.74996 1.55338 6.77991 0.583328 5.58329 0.583328C4.38668 0.583328 3.41663 1.55338 3.41663 2.74999C3.41663 3.94661 4.38668 4.91666 5.58329 4.91666Z" stroke="#1C274C"/>
<path d="M7.20833 6.71884C6.70653 6.6046 6.15799 6.54166 5.58333 6.54166C3.1901 6.54166 1.25 7.63295 1.25 8.97916C1.25 10.3254 1.25 11.4167 5.58333 11.4167C8.66401 11.4167 9.55456 10.8651 9.81202 10.0625" stroke="#1C274C"/>
<path d="M8.83329 10.3333C10.0299 10.3333 11 9.36328 11 8.16667C11 6.97005 10.0299 6 8.83329 6C7.63668 6 6.66663 6.97005 6.66663 8.16667C6.66663 9.36328 7.63668 10.3333 8.83329 10.3333Z" stroke="#1C274C"/>
<path d="M8.83331 7.44446V8.88887" stroke="#1C274C" stroke-linecap="round" stroke-linejoin="round"/>
<path d="M8.11102 8.16666H9.55549" stroke="#1C274C" stroke-linecap="round" stroke-linejoin="round"/>
</svg>
