<svg width="25" height="25" viewBox="0 0 25 25" fill="none" xmlns="http://www.w3.org/2000/svg">
<path fill-rule="evenodd" clip-rule="evenodd" d="M15.6168 2.28906C15.8168 3.38906 15.3168 4.48906 14.7168 5.28906C14.1168 6.08906 13.0168 6.78906 11.9168 6.68906C11.7168 5.58906 12.2168 4.58906 12.8168 3.78906C13.5168 2.98906 14.6168 2.38906 15.6168 2.28906ZM18.8168 19.6891C19.3168 18.8891 19.6168 18.3891 20.0168 17.4891C16.9168 16.2891 16.4168 11.8891 19.5168 10.2891C18.6168 9.08906 17.3168 8.48906 16.0168 8.48906C15.1168 8.48906 14.5168 8.68906 13.9168 8.88906C13.4168 9.08906 13.0168 9.18906 12.5168 9.18906C11.9168 9.18906 11.5168 8.98906 10.9168 8.78906C10.3168 8.58906 9.71684 8.38906 9.01684 8.38906C7.61684 8.38906 6.11684 9.18906 5.21684 10.6891C3.91684 12.6891 4.11684 16.5891 6.21684 19.7891C7.11684 20.9891 8.11684 22.2891 9.41684 22.2891C10.0168 22.2891 10.3168 22.0891 10.7168 21.9891C11.2168 21.7891 11.7168 21.5891 12.5168 21.5891C13.4168 21.5891 13.8168 21.7891 14.3168 21.9891C14.7168 22.1891 15.0168 22.2891 15.6168 22.2891C17.0168 22.2891 18.0168 20.7891 18.8168 19.6891Z" stroke="white" stroke-width="1.5" stroke-miterlimit="10" stroke-linecap="round" stroke-linejoin="round"/>
</svg>
