<svg width="24" height="16" viewBox="0 0 24 16" fill="none" xmlns="http://www.w3.org/2000/svg">
<path d="M19.9995 0C20.5299 0 21.0387 0.210714 21.4137 0.585786C21.7888 0.960859 21.9995 1.46957 21.9995 2V12C21.9995 13.11 21.1095 14 19.9995 14H23.9995V16H-0.000488281V14H3.99951C3.46908 14 2.96037 13.7893 2.5853 13.4142C2.21023 13.0391 1.99951 12.5304 1.99951 12V2C1.99951 0.89 2.88951 0 3.99951 0H19.9995ZM19.9995 2H3.99951V12H19.9995V2ZM11.9995 8C14.2095 8 15.9995 8.9 15.9995 10V11H7.99951V10C7.99951 8.9 9.78951 8 11.9995 8ZM11.9995 3C12.5299 3 13.0387 3.21071 13.4137 3.58579C13.7888 3.96086 13.9995 4.46957 13.9995 5C13.9995 5.53043 13.7888 6.03914 13.4137 6.41421C13.0387 6.78929 12.5299 7 11.9995 7C10.8895 7 9.99951 6.11 9.99951 5C9.99951 3.89 10.8995 3 11.9995 3Z" fill="white"/>
</svg>
