<svg width="26" height="24" viewBox="0 0 26 24" fill="none" xmlns="http://www.w3.org/2000/svg">
<path d="M21.5228 3.54614H4.22625C3.70497 3.54614 3.20503 3.74369 2.83643 4.09532C2.46782 4.44695 2.26074 4.92386 2.26074 5.42114V15.1711C2.26074 15.6684 2.46782 16.1453 2.83643 16.497C3.20503 16.8486 3.70497 17.0461 4.22625 17.0461H21.5228C22.044 17.0461 22.544 16.8486 22.9126 16.497C23.2812 16.1453 23.4883 15.6684 23.4883 15.1711V5.42114C23.4883 4.92386 23.2812 4.44695 22.9126 4.09532C22.544 3.74369 22.044 3.54614 21.5228 3.54614ZM21.1297 14.7961H4.61936V5.79614H21.1297V14.7961ZM23.4883 19.6711C23.4883 19.9695 23.364 20.2557 23.1429 20.4666C22.9217 20.6776 22.6217 20.7961 22.309 20.7961H3.44005C3.12728 20.7961 2.82732 20.6776 2.60615 20.4666C2.38499 20.2557 2.26074 19.9695 2.26074 19.6711C2.26074 19.3728 2.38499 19.0866 2.60615 18.8756C2.82732 18.6647 3.12728 18.5461 3.44005 18.5461H22.309C22.6217 18.5461 22.9217 18.6647 23.1429 18.8756C23.364 19.0866 23.4883 19.3728 23.4883 19.6711ZM10.5159 12.1711V8.42114C10.5158 8.22029 10.5721 8.02309 10.6789 7.85001C10.7858 7.67692 10.9392 7.53428 11.1233 7.43688C11.3075 7.33949 11.5156 7.29089 11.7261 7.29615C11.9365 7.3014 12.1417 7.36032 12.3202 7.46677L15.465 9.34177C15.6348 9.44286 15.7749 9.5835 15.8719 9.75047C15.969 9.91743 16.02 10.1052 16.02 10.2961C16.02 10.4871 15.969 10.6749 15.8719 10.8418C15.7749 11.0088 15.6348 11.1494 15.465 11.2505L12.3202 13.1255C12.1417 13.232 11.9365 13.2909 11.7261 13.2961C11.5156 13.3014 11.3075 13.2528 11.1233 13.1554C10.9392 13.058 10.7858 12.9154 10.6789 12.7423C10.5721 12.5692 10.5158 12.372 10.5159 12.1711Z" fill="white"/>
</svg>
