<svg width="15" height="15" viewBox="0 0 15 15" fill="none" xmlns="http://www.w3.org/2000/svg">
<path d="M1 7.5C1 4.43587 1 2.9038 1.95191 1.95191C2.9038 1 4.43587 1 7.5 1C10.5641 1 12.0962 1 13.0481 1.95191C14 2.9038 14 4.43587 14 7.5C14 10.5641 14 12.0962 13.0481 13.0481C12.0962 14 10.5641 14 7.5 14C4.43587 14 2.9038 14 1.95191 13.0481C1 12.0962 1 10.5641 1 7.5Z" stroke="#1C274C"/>
<path d="M2.29999 9.45H3.79594C4.32138 9.45 4.5841 9.45 4.81988 9.546C4.84135 9.55478 4.86258 9.56407 4.88355 9.57395C5.11386 9.68244 5.29174 9.87581 5.64749 10.2625L5.67054 10.2875C6.00342 10.6494 6.16987 10.8303 6.38257 10.937C6.42242 10.957 6.46324 10.9749 6.50497 10.9907C6.72746 11.075 6.97329 11.075 7.46502 11.075C7.92983 11.075 8.16227 11.075 8.37476 10.9989C8.4146 10.9846 8.45373 10.9684 8.49202 10.9503C8.69612 10.8539 8.8605 10.6895 9.18914 10.3608L9.33845 10.2115C9.71421 9.83577 9.90206 9.64792 10.141 9.54893C10.3799 9.45 10.6456 9.45 11.177 9.45H12.7" stroke="#1C274C" stroke-linecap="round"/>
<path d="M2.95001 9.45V8.475C2.95001 7.93654 3.38653 7.5 3.92501 7.5H11.075C11.6135 7.5 12.05 7.93654 12.05 8.475V9.45" stroke="#1C274C" stroke-linecap="round"/>
<path d="M2.95001 8.8V6.525C2.95001 5.98652 3.38653 5.55 3.92501 5.55H11.075C11.6135 5.55 12.05 5.98652 12.05 6.525V8.8" stroke="#1C274C" stroke-linecap="round"/>
<path d="M2.95001 6.85001V4.57501C2.95001 4.03653 3.38653 3.60001 3.92501 3.60001H11.075C11.6135 3.60001 12.05 4.03653 12.05 4.57501V6.85001" stroke="#1C274C" stroke-linecap="round"/>
</svg>
