<svg width="71" height="70" viewBox="0 0 71 70" fill="none" xmlns="http://www.w3.org/2000/svg">
<rect x="1" y="0.491211" width="69" height="69" rx="34.5" stroke="white"/>
<path d="M50.908 53.6579C50.9081 53.833 50.872 54.0064 50.8016 54.1682C50.7313 54.3301 50.6281 54.4771 50.498 54.6009C50.3679 54.7247 50.2135 54.8229 50.0435 54.8899C49.8735 54.9569 49.6913 54.9913 49.5074 54.9912H21.4944C21.3104 54.9913 21.1283 54.9569 20.9583 54.8899C20.7883 54.8229 20.6338 54.7247 20.5038 54.6009C20.3737 54.4771 20.2705 54.3301 20.2002 54.1682C20.1298 54.0064 20.0936 53.833 20.0938 53.6579C20.0938 49.768 21.717 46.0375 24.6064 43.287C27.4958 40.5364 31.4147 38.9912 35.5009 38.9912C39.5871 38.9912 43.506 40.5364 46.3954 43.287C49.2848 46.0375 50.908 49.768 50.908 53.6579ZM35.5009 20.3245C33.8388 20.3245 32.2139 20.7937 30.8319 21.6728C29.4499 22.5518 28.3728 23.8013 27.7367 25.2631C27.1006 26.7249 26.9342 28.3334 27.2585 29.8853C27.5827 31.4371 28.3831 32.8626 29.5584 33.9814C30.7337 35.1002 32.2312 35.8621 33.8614 36.1708C35.4916 36.4795 37.1813 36.3211 38.7169 35.7156C40.2525 35.1101 41.565 34.0847 42.4885 32.7691C43.4119 31.4535 43.9048 29.9068 43.9048 28.3245C43.9023 26.2035 43.0162 24.17 41.4406 22.6703C39.8651 21.1705 37.729 20.3269 35.5009 20.3245ZM22.895 32.3245C23.6377 32.3236 24.3497 32.0424 24.8748 31.5425C25.3999 31.0426 25.6954 30.3648 25.6963 29.6579V26.9912C25.6963 26.284 25.4012 25.6057 24.8759 25.1056C24.3505 24.6055 23.638 24.3245 22.895 24.3245C22.1521 24.3245 21.4396 24.6055 20.9142 25.1056C20.3889 25.6057 20.0938 26.284 20.0938 26.9912V29.6579C20.0947 30.3648 20.3902 31.0426 20.9153 31.5425C21.4404 32.0424 22.1524 32.3236 22.895 32.3245ZM35.5009 17.6579C37.3836 17.6597 39.2354 18.1134 40.8851 18.977C42.5349 19.8406 43.9292 21.0863 44.9392 22.5988C45.7422 22.081 46.6735 21.7721 47.6406 21.7027C46.4188 19.6641 44.6522 17.9695 42.5202 16.7908C40.3881 15.6121 37.9664 14.9912 35.5009 14.9912C33.0353 14.9912 30.6137 15.6121 28.4816 16.7908C26.3495 17.9695 24.583 19.6641 23.3611 21.7027C24.3283 21.7721 25.2596 22.081 26.0626 22.5988C27.0726 21.0863 28.4669 19.8406 30.1166 18.977C31.7663 18.1134 33.6182 17.6597 35.5009 17.6579ZM48.1067 24.3245C47.3641 24.3255 46.6521 24.6067 46.127 25.1066C45.6018 25.6065 45.3064 26.2842 45.3054 26.9912V29.6579C45.3062 30.1028 45.4241 30.5405 45.6483 30.931C45.8725 31.3214 46.196 31.6521 46.589 31.8929C46.3752 32.7723 45.8552 33.557 45.1136 34.1195C44.372 34.682 43.4523 34.9892 42.5041 34.9912C42.1327 34.9912 41.7764 35.1317 41.5137 35.3817C41.251 35.6318 41.1035 35.9709 41.1035 36.3245C41.1035 36.6782 41.251 37.0173 41.5137 37.2674C41.7764 37.5174 42.1327 37.6579 42.5041 37.6579C44.1721 37.6535 45.7836 37.0819 47.0479 36.0462C48.3122 35.0105 49.1461 33.5788 49.3992 32.0094C49.8523 31.786 50.2325 31.4487 50.4985 31.0342C50.7645 30.6196 50.9061 30.1436 50.908 29.6579V26.9912C50.9071 26.2842 50.6116 25.6065 50.0865 25.1066C49.5613 24.6067 48.8494 24.3255 48.1067 24.3245Z" fill="white"/>
</svg>
