<svg width="24" height="24" viewBox="0 0 24 24" fill="none" xmlns="http://www.w3.org/2000/svg">
<path d="M8.39994 15.6C8.7182 15.6 9.02343 15.4736 9.24847 15.2485C9.47351 15.0235 9.59994 14.7183 9.59994 14.4C9.59994 14.0817 9.47351 13.7765 9.24847 13.5515C9.02343 13.3264 8.7182 13.2 8.39994 13.2C8.08168 13.2 7.77646 13.3264 7.55141 13.5515C7.32637 13.7765 7.19994 14.0817 7.19994 14.4C7.19994 14.7183 7.32637 15.0235 7.55141 15.2485C7.77646 15.4736 8.08168 15.6 8.39994 15.6ZM13.1999 14.4C13.1999 14.7183 13.0735 15.0235 12.8485 15.2485C12.6234 15.4736 12.3182 15.6 11.9999 15.6C11.6817 15.6 11.3765 15.4736 11.1514 15.2485C10.9264 15.0235 10.7999 14.7183 10.7999 14.4C10.7999 14.0817 10.9264 13.7765 11.1514 13.5515C11.3765 13.3264 11.6817 13.2 11.9999 13.2C12.3182 13.2 12.6234 13.3264 12.8485 13.5515C13.0735 13.7765 13.1999 14.0817 13.1999 14.4ZM15.5999 15.6C15.9182 15.6 16.2234 15.4736 16.4485 15.2485C16.6735 15.0235 16.7999 14.7183 16.7999 14.4C16.7999 14.0817 16.6735 13.7765 16.4485 13.5515C16.2234 13.3264 15.9182 13.2 15.5999 13.2C15.2817 13.2 14.9765 13.3264 14.7514 13.5515C14.5264 13.7765 14.3999 14.0817 14.3999 14.4C14.3999 14.7183 14.5264 15.0235 14.7514 15.2485C14.9765 15.4736 15.2817 15.6 15.5999 15.6ZM4.79994 3.95161C5.02493 3.72655 5.33011 3.60007 5.64834 3.60001H18.3515C18.6698 3.60007 18.975 3.72655 19.1999 3.95161L22.3703 7.12081C23.2847 8.03641 22.6367 9.60001 21.3431 9.60001H20.3999V18C20.3999 18.6365 20.1471 19.247 19.697 19.6971C19.2469 20.1471 18.6365 20.4 17.9999 20.4H5.99994C5.36342 20.4 4.75297 20.1471 4.30289 19.6971C3.8528 19.247 3.59994 18.6365 3.59994 18V9.60001H2.65674C1.36314 9.60001 0.716342 8.03641 1.63194 7.12081L4.79994 3.95161ZM19.1999 18V9.60001H4.79994V18C4.79994 18.3183 4.92637 18.6235 5.15141 18.8485C5.37646 19.0736 5.68168 19.2 5.99994 19.2H17.9999C18.3182 19.2 18.6234 19.0736 18.8485 18.8485C19.0735 18.6235 19.1999 18.3183 19.1999 18ZM21.3431 8.40001C21.3929 8.40001 21.4416 8.38528 21.483 8.35766C21.5244 8.33005 21.5567 8.29079 21.5758 8.24484C21.5949 8.19889 21.6 8.1483 21.5904 8.09946C21.5809 8.05062 21.557 8.00572 21.5219 7.97041L18.3515 4.80001H5.64834L2.47914 7.97041C2.44414 8.00564 2.42032 8.05044 2.4107 8.09917C2.40107 8.1479 2.40606 8.19838 2.42504 8.24428C2.44401 8.29019 2.47613 8.32946 2.51735 8.35716C2.55858 8.38487 2.60707 8.39977 2.65674 8.40001H21.3431Z" fill="#17171B"/>
</svg>
