<svg width="71" height="71" viewBox="0 0 71 71" fill="none" xmlns="http://www.w3.org/2000/svg">
<rect x="1.4668" y="0.714844" width="69" height="69" rx="34.5" stroke="white"/>
<path d="M18.9338 40.2688H23.3279C24.1002 40.2688 24.7322 40.9002 24.7322 41.6725V47.4452C24.7322 48.2176 24.1002 48.8496 23.3279 48.8496H18.9338C18.1615 48.8496 17.5295 48.2176 17.5295 47.4452V41.6725C17.5295 40.9002 18.1615 40.2688 18.9338 40.2688ZM55.0915 15.2149H52.4445C51.9622 15.2149 51.5694 15.6077 51.5694 16.09V50.8177H16.8417C16.3594 50.8177 15.9667 51.2104 15.9667 51.6921V54.3398C15.9667 54.8215 16.3594 55.2148 16.8417 55.2148H55.0915C55.5732 55.2148 55.9666 54.8215 55.9666 54.3398V16.09C55.9666 15.6077 55.5732 15.2149 55.0915 15.2149ZM16.4703 31.2158C21.242 28.9439 29.2979 24.7728 33.1633 20.6137C33.4646 20.2898 33.4765 19.8038 33.2015 19.4574L31.8516 17.7568C31.6474 17.4993 31.5948 17.1786 31.7163 16.8736C31.8379 16.5692 32.0947 16.3618 32.421 16.3261L42.5258 15.2212C42.8252 15.188 43.0995 15.2851 43.2993 15.5106C43.4991 15.7361 43.5568 16.0186 43.4941 16.313L41.2711 26.6896C41.1997 27.0228 40.9398 27.2596 40.6065 27.3328C40.2727 27.4061 39.9513 27.2909 39.7327 27.0284L37.806 24.7196C37.4991 24.3507 36.9547 24.2868 36.577 24.5837C34.6403 26.1095 25.326 31.2552 17.0184 32.8769C16.5793 32.9627 16.1515 32.7122 16.0118 32.2881C15.8715 31.8641 16.0669 31.4074 16.4703 31.2158ZM40.7988 31.626H45.1929C45.9652 31.626 46.5966 32.2574 46.5966 33.0304V47.4459C46.5966 48.2182 45.9652 48.8502 45.1929 48.8502H40.7988C40.0259 48.8502 39.3945 48.2182 39.3945 47.4459V33.0304C39.3945 32.2574 40.0259 31.626 40.7988 31.626ZM29.866 35.6831H34.2601C35.0324 35.6831 35.6644 36.3151 35.6644 37.0874V47.4459C35.6644 48.2176 35.0324 48.8502 34.2601 48.8502H29.866C29.0937 48.8502 28.4623 48.2176 28.4623 47.4459V37.0874C28.4623 36.3151 29.0937 35.6831 29.866 35.6831Z" fill="white"/>
</svg>
