<svg width="17" height="17" viewBox="0 0 17 17" fill="none" xmlns="http://www.w3.org/2000/svg">
<path d="M8.25002 11.6666H9.25002V7.83329H8.25002V11.6666ZM8.75002 6.69996C8.90558 6.69996 9.03335 6.64707 9.13335 6.54129C9.23335 6.43596 9.28335 6.30551 9.28335 6.14996C9.28335 6.00551 9.23335 5.8804 9.13335 5.77463C9.03335 5.66929 8.90558 5.61663 8.75002 5.61663C8.59446 5.61663 8.46669 5.66929 8.36669 5.77463C8.26669 5.8804 8.21669 6.00551 8.21669 6.14996C8.21669 6.30551 8.26669 6.43596 8.36669 6.54129C8.46669 6.64707 8.59446 6.69996 8.75002 6.69996ZM8.75002 14.8333C7.87224 14.8333 7.04735 14.6666 6.27535 14.3333C5.50291 14 4.83335 13.55 4.26669 12.9833C3.70002 12.4166 3.25002 11.7471 2.91669 10.9746C2.58335 10.2026 2.41669 9.37774 2.41669 8.49996C2.41669 7.62218 2.58335 6.79707 2.91669 6.02463C3.25002 5.25263 3.70002 4.58329 4.26669 4.01663C4.83335 3.44996 5.50291 2.99996 6.27535 2.66663C7.04735 2.33329 7.87224 2.16663 8.75002 2.16663C9.6278 2.16663 10.4529 2.33329 11.2254 2.66663C11.9974 2.99996 12.6667 3.44996 13.2334 4.01663C13.8 4.58329 14.25 5.25263 14.5834 6.02463C14.9167 6.79707 15.0834 7.62218 15.0834 8.49996C15.0834 9.37774 14.9167 10.2026 14.5834 10.9746C14.25 11.7471 13.8 12.4166 13.2334 12.9833C12.6667 13.55 11.9974 14 11.2254 14.3333C10.4529 14.6666 9.6278 14.8333 8.75002 14.8333ZM8.75002 13.8333C10.2278 13.8333 11.4862 13.314 12.5254 12.2753C13.564 11.2362 14.0834 9.97774 14.0834 8.49996C14.0834 7.02218 13.564 5.76374 12.5254 4.72463C11.4862 3.68596 10.2278 3.16663 8.75002 3.16663C7.27224 3.16663 6.01402 3.68596 4.97535 4.72463C3.93624 5.76374 3.41669 7.02218 3.41669 8.49996C3.41669 9.97774 3.93624 11.2362 4.97535 12.2753C6.01402 13.314 7.27224 13.8333 8.75002 13.8333Z" fill="#9A9AA6"/>
</svg>
