<svg width="20" height="20" viewBox="0 0 20 20" fill="none" xmlns="http://www.w3.org/2000/svg">
<rect width="19.4346" height="19.4346" transform="translate(0.101562 0.136719)" fill="#0052CC"/>
<path fill-rule="evenodd" clip-rule="evenodd" d="M5.81269 0.195023C6.84891 0.147319 7.1793 0.136719 9.81888 0.136719C12.4585 0.136719 12.7888 0.148203 13.8242 0.195023C14.8595 0.241842 15.5662 0.407037 16.1846 0.646436C16.8321 0.891136 17.4196 1.27364 17.9054 1.76834C18.4001 2.25333 18.7818 2.8399 19.0256 3.48831C19.2659 4.10668 19.4302 4.8134 19.4779 5.84697C19.5256 6.88495 19.5362 7.21534 19.5362 9.85403C19.5362 12.4936 19.5247 12.824 19.4779 13.8602C19.4311 14.8938 19.2659 15.6005 19.0256 16.2189C18.7818 16.8674 18.3995 17.4549 17.9054 17.9406C17.4196 18.4353 16.8321 18.8169 16.1846 19.0607C15.5662 19.301 14.8595 19.4653 13.8259 19.513C12.7888 19.5607 12.4585 19.5713 9.81888 19.5713C7.1793 19.5713 6.84891 19.5599 5.81269 19.513C4.77912 19.4662 4.07241 19.301 3.45404 19.0607C2.80556 18.8169 2.21801 18.4346 1.7323 17.9406C1.23794 17.4553 0.855374 16.8681 0.61128 16.2198C0.371881 15.6014 0.20757 14.8947 0.159866 13.8611C0.112163 12.8231 0.101562 12.4927 0.101562 9.85403C0.101562 7.21446 0.113047 6.88407 0.159866 5.84873C0.206686 4.8134 0.371881 4.10668 0.61128 3.48831C0.855735 2.83997 1.23859 2.25272 1.73319 1.76746C2.21821 1.2732 2.80516 0.890644 3.45315 0.646436C4.07153 0.407037 4.77912 0.242726 5.81269 0.195023ZM13.7456 1.94414C12.7208 1.89732 12.4134 1.8876 9.81888 1.8876C7.22435 1.8876 6.91693 1.89732 5.8922 1.94414C4.94432 1.98743 4.43018 2.14555 4.08743 2.27894C3.63425 2.45562 3.31004 2.66499 2.96994 3.00509C2.64754 3.31874 2.39942 3.70057 2.24379 4.12258C2.1104 4.46534 1.95227 4.97947 1.90898 5.92735C1.86216 6.95209 1.85245 7.25951 1.85245 9.85403C1.85245 12.4486 1.86216 12.756 1.90898 13.7807C1.95227 14.7286 2.1104 15.2427 2.24379 15.5855C2.39927 16.0069 2.6475 16.3894 2.96994 16.703C3.28354 17.0254 3.66605 17.2736 4.08743 17.4291C4.43018 17.5625 4.94432 17.7206 5.8922 17.7639C6.91693 17.8107 7.22347 17.8205 9.81888 17.8205C12.4143 17.8205 12.7208 17.8107 13.7456 17.7639C14.6934 17.7206 15.2076 17.5625 15.5503 17.4291C16.0035 17.2524 16.3277 17.0431 16.6678 16.703C16.9903 16.3894 17.2385 16.0069 17.394 15.5855C17.5274 15.2427 17.6855 14.7286 17.7288 13.7807C17.7756 12.756 17.7853 12.4486 17.7853 9.85403C17.7853 7.25951 17.7756 6.95209 17.7288 5.92735C17.6855 4.97947 17.5274 4.46534 17.394 4.12258C17.2173 3.6694 17.0079 3.3452 16.6678 3.00509C16.3541 2.68272 15.9723 2.43461 15.5503 2.27894C15.2076 2.14555 14.6934 1.98743 13.7456 1.94414ZM8.57771 12.8496C9.27087 13.1382 10.0427 13.1771 10.7614 12.9598C11.4801 12.7425 12.101 12.2824 12.5182 11.6581C12.9353 11.0339 13.1228 10.2841 13.0486 9.53699C12.9744 8.78984 12.6431 8.09164 12.1113 7.56163C11.7723 7.22283 11.3623 6.96341 10.911 6.80204C10.4597 6.64068 9.97827 6.58138 9.50129 6.62843C9.02432 6.67547 8.56371 6.82769 8.15263 7.07411C7.74154 7.32054 7.3902 7.65504 7.12391 8.05355C6.85762 8.45205 6.683 8.90464 6.61262 9.37873C6.54224 9.85282 6.57784 10.3366 6.71688 10.7953C6.85592 11.254 7.09492 11.6761 7.41669 12.0313C7.73845 12.3866 8.13498 12.666 8.57771 12.8496ZM6.28707 6.32223C6.75088 5.85843 7.30149 5.49052 7.90748 5.23951C8.51347 4.9885 9.16296 4.85931 9.81888 4.85931C10.4748 4.85931 11.1243 4.9885 11.7303 5.23951C12.3363 5.49052 12.8869 5.85843 13.3507 6.32223C13.8145 6.78603 14.1824 7.33665 14.4334 7.94264C14.6844 8.54862 14.8136 9.19812 14.8136 9.85403C14.8136 10.5099 14.6844 11.1594 14.4334 11.7654C14.1824 12.3714 13.8145 12.922 13.3507 13.3858C12.414 14.3225 11.1436 14.8488 9.81888 14.8488C8.49419 14.8488 7.22377 14.3225 6.28707 13.3858C5.35038 12.4491 4.82415 11.1787 4.82415 9.85403C4.82415 8.52935 5.35038 7.25892 6.28707 6.32223ZM15.9214 5.60315C16.0363 5.49473 16.1283 5.36435 16.1919 5.21973C16.2556 5.07512 16.2896 4.9192 16.2919 4.76122C16.2942 4.60323 16.2647 4.44639 16.2053 4.29998C16.1459 4.15357 16.0578 4.02056 15.946 3.90884C15.8343 3.79711 15.7013 3.70894 15.5549 3.64954C15.4085 3.59014 15.2517 3.56073 15.0937 3.56303C14.9357 3.56533 14.7798 3.59931 14.6352 3.66295C14.4905 3.72659 14.3602 3.8186 14.2517 3.93354C14.0409 4.15706 13.9254 4.45396 13.9299 4.76122C13.9344 5.06847 14.0584 5.36188 14.2757 5.57916C14.493 5.79644 14.7864 5.92049 15.0937 5.92497C15.4009 5.92945 15.6978 5.81401 15.9214 5.60315Z" fill="white"/>
</svg>
