<svg width="25" height="25" viewBox="0 0 25 25" fill="none" xmlns="http://www.w3.org/2000/svg">
<path d="M5.68706 7.55602H5.65837C5.3545 7.57501 5.04998 7.53106 4.76388 7.42692C4.47778 7.32279 4.21627 7.1607 3.9957 6.95083C3.77514 6.74095 3.60029 6.48779 3.48208 6.20721C3.36388 5.92663 3.30488 5.62467 3.30877 5.32024C3.31267 5.0158 3.37937 4.71545 3.50471 4.43798C3.63005 4.16052 3.81132 3.91192 4.03718 3.70775C4.26304 3.50358 4.52861 3.34824 4.81728 3.25145C5.10595 3.15467 5.41149 3.11852 5.71477 3.14528C6.01865 3.12405 6.32363 3.16582 6.61061 3.26797C6.89758 3.37011 7.16036 3.53044 7.38248 3.73889C7.6046 3.94734 7.78127 4.19943 7.90141 4.47935C8.02155 4.75927 8.08258 5.06099 8.08067 5.3656C8.07875 5.6702 8.01394 5.97113 7.89029 6.24952C7.76664 6.52791 7.58682 6.77776 7.3621 6.9834C7.13738 7.18905 6.8726 7.34606 6.58437 7.44459C6.29613 7.54313 5.99065 7.58106 5.68706 7.55602ZM3.72168 10.5249H7.68016V22.4003H3.72168V10.5249ZM18.0712 10.5249C17.4042 10.5267 16.7462 10.6792 16.1464 10.971C15.5466 11.2629 15.0206 11.6865 14.6075 12.2102V10.5249H10.649V22.4003H14.6075V16.9574C14.6075 16.4325 14.816 15.9291 15.1872 15.5579C15.5584 15.1867 16.0618 14.9782 16.5867 14.9782C17.1117 14.9782 17.6151 15.1867 17.9863 15.5579C18.3575 15.9291 18.566 16.4325 18.566 16.9574V22.4003H22.5245V14.9782C22.5245 13.7971 22.0553 12.6644 21.2201 11.8292C20.385 10.9941 19.2523 10.5249 18.0712 10.5249Z" fill="white"/>
</svg>
