<svg width="21" height="21" viewBox="0 0 21 21" fill="none" xmlns="http://www.w3.org/2000/svg">
<path d="M10.916 1.99597C9.09332 1.99812 7.34588 2.72314 6.05704 4.01199C4.76819 5.30083 4.04317 7.04827 4.04102 8.87097C4.03934 10.3604 4.52584 11.8093 5.42602 12.996C5.42602 12.996 5.61352 13.2428 5.64415 13.2785L10.916 19.496L16.1904 13.2753C16.2179 13.2422 16.406 12.996 16.406 12.996L16.4066 12.9941C17.3062 11.8079 17.7925 10.3597 17.791 8.87097C17.7889 7.04827 17.0639 5.30083 15.775 4.01199C14.4862 2.72314 12.7387 1.99812 10.916 1.99597ZM10.916 11.371C10.4216 11.371 9.93822 11.2243 9.52709 10.9496C9.11597 10.6749 8.79554 10.2845 8.60632 9.82768C8.4171 9.37087 8.36759 8.8682 8.46406 8.38325C8.56052 7.89829 8.79862 7.45284 9.14825 7.1032C9.49788 6.75357 9.94334 6.51547 10.4283 6.41901C10.9132 6.32255 11.4159 6.37205 11.8727 6.56127C12.3295 6.75049 12.72 7.07092 12.9947 7.48205C13.2694 7.89317 13.416 8.37652 13.416 8.87097C13.4152 9.53376 13.1515 10.1692 12.6829 10.6378C12.2142 11.1065 11.5788 11.3701 10.916 11.371Z" fill="black"/>
</svg>
