<svg width="71" height="70" viewBox="0 0 71 70" fill="none" xmlns="http://www.w3.org/2000/svg">
<rect x="0.611328" y="0.491211" width="69" height="69" rx="34.5" stroke="white"/>
<path fill-rule="evenodd" clip-rule="evenodd" d="M22.0288 35.361C24.0271 35.361 25.6471 33.741 25.6471 31.7426C25.6471 29.7443 24.0271 28.1243 22.0288 28.1243C20.0304 28.1243 18.4104 29.7443 18.4104 31.7426C18.4104 33.741 20.0304 35.361 22.0288 35.361ZM37.8269 27.1161C37.6236 26.9444 37.5986 26.6411 37.7702 26.4378C37.9419 26.2344 38.2452 26.2094 38.4485 26.3811L39.6469 27.3994L42.0985 24.4961C42.2702 24.2928 42.5735 24.2678 42.7768 24.4394C42.9802 24.6111 43.0052 24.9144 42.8335 25.1178L40.0702 28.3894C39.8985 28.5928 39.5952 28.6178 39.3919 28.4461L37.8269 27.1161ZM39.9202 21.4112V17.4812C39.9202 16.7978 39.6402 16.1745 39.1886 15.7229C38.7369 15.2712 38.1152 14.9912 37.4302 14.9912H25.4188C24.7354 14.9912 24.1121 15.2712 23.6604 15.7229C23.2088 16.1745 22.9288 16.7962 22.9288 17.4812V21.6545C22.9288 22.1461 23.0721 22.6045 23.3188 22.9895C23.5754 23.3911 23.9438 23.7145 24.3771 23.9145C24.6571 24.0445 24.7804 24.3761 24.6504 24.6562L23.8938 26.2861C23.8605 26.3578 23.8755 26.4378 23.9321 26.4928C23.9888 26.5478 24.0688 26.5611 24.1405 26.5261L28.8086 24.2195C28.8919 24.1695 28.9886 24.1428 29.0919 24.1428H31.2569C31.3836 23.4679 31.7152 22.8628 32.1836 22.3945C32.7903 21.7878 33.6286 21.4112 34.5503 21.4112L39.9203 21.4095L39.9202 21.4112ZM27.9936 18.6878C28.082 18.7762 28.137 18.8978 28.137 19.0328C28.137 19.1678 28.082 19.2895 27.9936 19.3778C27.9053 19.4662 27.7836 19.5212 27.6486 19.5212C27.5136 19.5212 27.392 19.4662 27.3036 19.3778C27.2153 19.2895 27.1603 19.1678 27.1603 19.0328C27.1603 18.8978 27.2153 18.7762 27.3036 18.6878C27.392 18.5995 27.5136 18.5445 27.6486 18.5445C27.782 18.5445 27.9036 18.5995 27.9936 18.6878ZM27.6486 17.5478C28.0586 17.5478 28.4286 17.7145 28.697 17.9828C28.9653 18.2511 29.1319 18.6211 29.1319 19.0311C29.1319 19.4411 28.9653 19.8111 28.697 20.0794C28.4286 20.3478 28.057 20.5144 27.6486 20.5144C27.2386 20.5144 26.8686 20.3478 26.6003 20.0794C26.332 19.8111 26.1653 19.4394 26.1653 19.0311C26.1653 18.6211 26.332 18.2511 26.6003 17.9828C26.867 17.7145 27.2387 17.5478 27.6486 17.5478ZM31.9336 18.6878C32.022 18.7762 32.077 18.8978 32.077 19.0328C32.077 19.1678 32.022 19.2895 31.9336 19.3778C31.8453 19.4662 31.7236 19.5212 31.5886 19.5212C31.4536 19.5212 31.332 19.4662 31.2436 19.3778C31.1553 19.2895 31.1003 19.1678 31.1003 19.0328C31.1003 18.8978 31.1553 18.7762 31.2436 18.6878C31.332 18.5995 31.4536 18.5445 31.5886 18.5445C31.722 18.5445 31.8436 18.5995 31.9336 18.6878ZM31.5886 17.5478C31.9986 17.5478 32.3686 17.7145 32.637 17.9828C32.9053 18.2511 33.0719 18.6228 33.0719 19.0311C33.0719 19.4411 32.9053 19.8111 32.637 20.0794C32.3686 20.3478 31.997 20.5144 31.5886 20.5144C31.1786 20.5144 30.8086 20.3478 30.5403 20.0794C30.272 19.8111 30.1053 19.4394 30.1053 19.0311C30.1053 18.6211 30.272 18.2511 30.5403 17.9828C30.807 17.7145 31.1787 17.5478 31.5886 17.5478ZM35.5453 18.6878C35.6336 18.7762 35.6886 18.8978 35.6886 19.0328C35.6886 19.1678 35.6336 19.2895 35.5453 19.3778C35.4569 19.4662 35.3353 19.5212 35.2003 19.5212C35.0653 19.5212 34.9436 19.4662 34.8553 19.3778C34.7669 19.2895 34.7119 19.1678 34.7119 19.0328C34.7119 18.8978 34.7669 18.7762 34.8553 18.6878C34.9436 18.5995 35.0653 18.5445 35.2003 18.5445C35.3353 18.5445 35.4569 18.5995 35.5453 18.6878ZM35.2003 17.5478C35.6103 17.5478 35.9803 17.7145 36.2486 17.9828C36.5169 18.2511 36.6836 18.6211 36.6836 19.0311C36.6836 19.4411 36.5169 19.8111 36.2486 20.0794C35.9803 20.3478 35.6086 20.5144 35.2003 20.5144C34.7903 20.5144 34.4203 20.3478 34.152 20.0794C33.8836 19.8111 33.717 19.4394 33.717 19.0311C33.717 18.6211 33.8836 18.2511 34.152 17.9828C34.4203 17.7145 34.7903 17.5478 35.2003 17.5478ZM42.4621 30.8845L46.5688 32.9145C46.6388 32.9495 46.7204 32.9362 46.7771 32.8812C46.8338 32.8262 46.8488 32.7462 46.8154 32.6745L46.1988 31.3462C46.0688 31.0662 46.1921 30.7328 46.4721 30.6028C46.8604 30.4228 47.1904 30.1328 47.4204 29.7745C47.6421 29.4295 47.7704 29.0195 47.7704 28.5778V24.7612C47.7704 24.1495 47.5188 23.5912 47.1154 23.1879C46.7104 22.7829 46.1538 22.5329 45.5404 22.5329H34.5504C33.9387 22.5329 33.3804 22.7829 32.9754 23.1879C32.5704 23.5929 32.3204 24.1495 32.3204 24.7612V28.5778C32.3204 29.1895 32.5721 29.7478 32.9754 30.1528C33.3804 30.5578 33.9371 30.8079 34.5504 30.8079H42.177C42.282 30.8079 42.3788 30.8362 42.4621 30.8845ZM28.2089 49.386V47.6343L26.5139 47.6327C26.4789 47.6327 26.4456 47.6293 26.4139 47.6227C25.9089 47.5277 25.4406 47.3143 25.0573 47.006C24.6789 46.701 24.3806 46.3027 24.2106 45.8293L23.7023 44.421C23.6006 44.1393 23.7473 43.8277 24.0306 43.726C24.3123 43.6244 24.6239 43.771 24.7256 44.0543L25.2339 45.4627C25.3322 45.7377 25.5106 45.9727 25.7406 46.1577C25.9756 46.346 26.2623 46.4793 26.5739 46.546C28.1506 46.546 29.1122 46.5477 30.0289 46.5477C31.0956 46.5493 32.1039 46.5493 33.9572 46.5493V46.5477H33.9589V46.5493C34.4672 46.5493 34.9289 46.361 35.2639 46.056C35.5839 45.7644 35.7822 45.3677 35.7822 44.936H35.7805C35.7805 44.5027 35.5822 44.1061 35.2639 43.8144C34.9322 43.511 34.4689 43.3227 33.9589 43.3227L28.6755 43.3244V43.3227C28.4188 43.3227 28.1905 43.1411 28.1405 42.8794L27.6655 40.3744C27.3755 38.8394 26.8171 37.7044 25.9188 36.9644C25.0171 36.2211 23.7454 35.8511 22.0255 35.8511C20.3155 35.8511 18.7638 36.4861 17.6423 37.5094C16.534 38.5194 15.8457 39.911 15.8457 41.436L15.8474 49.3861L28.2089 49.386ZM42.0154 54.9911V53.2394L43.7104 53.2378C43.7454 53.2378 43.7787 53.2344 43.8104 53.2278V53.2294C44.3154 53.1344 44.7837 52.9211 45.1671 52.6111C45.5454 52.3061 45.8437 51.9061 46.0137 51.4344L46.5221 50.0261C46.6237 49.7444 46.4771 49.4328 46.1937 49.3311C45.9121 49.2295 45.6004 49.3761 45.4988 49.6595L44.9904 51.0678C44.8921 51.3428 44.7138 51.5778 44.4838 51.7628C44.2488 51.9511 43.9621 52.0844 43.6504 52.1511C42.0738 52.1528 41.1121 52.1528 40.1954 52.1528C39.1288 52.1544 38.1204 52.1544 36.2671 52.1544V52.1528H36.2655V52.1544C35.7571 52.1544 35.2955 51.9661 34.9605 51.6611C34.6405 51.3695 34.4422 50.9728 34.4422 50.5411H34.4438C34.4438 50.1078 34.6421 49.7112 34.9605 49.4195C35.2921 49.1161 35.7555 48.9278 36.2655 48.9278H41.542V48.9262C41.7987 48.9262 42.027 48.7445 42.077 48.4828L42.552 45.9778C42.842 44.4428 43.4004 43.3078 44.297 42.5678C45.1987 41.8245 46.472 41.4545 48.1903 41.4545C49.9003 41.4545 51.452 42.0895 52.5735 43.1128C53.6818 44.1228 54.3701 45.5145 54.3701 47.0395L54.3768 54.9912L42.0154 54.9911ZM48.1952 40.9244C46.1969 40.9244 44.5769 39.3044 44.5769 37.306C44.5769 35.3077 46.1969 33.6877 48.1952 33.6877C50.1935 33.6877 51.8135 35.3077 51.8135 37.306C51.8135 39.3044 50.1935 40.9244 48.1952 40.9244Z" fill="white"/>
</svg>
