<svg width="25" height="25" viewBox="0 0 25 25" fill="none" xmlns="http://www.w3.org/2000/svg">
<g clip-path="url(#clip0_2569_3095)">
<path d="M4.32861 18.6401H20.3286C20.8786 18.6401 21.3286 18.1901 21.3286 17.6401C21.3286 17.0901 20.8786 16.6401 20.3286 16.6401H4.32861C3.77861 16.6401 3.32861 17.0901 3.32861 17.6401C3.32861 18.1901 3.77861 18.6401 4.32861 18.6401ZM4.32861 13.6401H20.3286C20.8786 13.6401 21.3286 13.1901 21.3286 12.6401C21.3286 12.0901 20.8786 11.6401 20.3286 11.6401H4.32861C3.77861 11.6401 3.32861 12.0901 3.32861 12.6401C3.32861 13.1901 3.77861 13.6401 4.32861 13.6401ZM3.32861 7.64008C3.32861 8.19008 3.77861 8.64008 4.32861 8.64008H20.3286C20.8786 8.64008 21.3286 8.19008 21.3286 7.64008C21.3286 7.09008 20.8786 6.64008 20.3286 6.64008H4.32861C3.77861 6.64008 3.32861 7.09008 3.32861 7.64008Z" fill="black"/>
</g>
<defs>
<clipPath id="clip0_2569_3095">
<rect width="24" height="24" fill="white" transform="translate(0.328613 0.640076)"/>
</clipPath>
</defs>
</svg>
