<svg width="5" height="19" viewBox="0 0 5 19" fill="none" xmlns="http://www.w3.org/2000/svg">
<path d="M2.75 4.5C1.6454 4.5 0.75 3.60457 0.75 2.5C0.75 1.39543 1.6454 0.5 2.75 0.5C3.8546 0.5 4.75 1.39543 4.75 2.5C4.75 3.60457 3.8546 4.5 2.75 4.5Z" fill="#1C274C"/>
<path d="M2.75 11.5C1.6454 11.5 0.75 10.6046 0.75 9.5C0.75 8.3954 1.6454 7.5 2.75 7.5C3.8546 7.5 4.75 8.3954 4.75 9.5C4.75 10.6046 3.8546 11.5 2.75 11.5Z" fill="#1C274C"/>
<path d="M2.75 18.5C1.6454 18.5 0.75 17.6046 0.75 16.5C0.75 15.3954 1.6454 14.5 2.75 14.5C3.8546 14.5 4.75 15.3954 4.75 16.5C4.75 17.6046 3.8546 18.5 2.75 18.5Z" fill="#1C274C"/>
</svg>
