<svg width="25" height="25" viewBox="0 0 25 25" fill="none" xmlns="http://www.w3.org/2000/svg">
<path d="M12.8484 13.5C13.4697 13.5 13.9734 12.9963 13.9734 12.375C13.9734 11.7537 13.4697 11.25 12.8484 11.25C12.2271 11.25 11.7234 11.7537 11.7234 12.375C11.7234 12.9963 12.2271 13.5 12.8484 13.5Z" fill="#222021"/>
<path d="M18.8484 13.5C19.4697 13.5 19.9734 12.9963 19.9734 12.375C19.9734 11.7537 19.4697 11.25 18.8484 11.25C18.2271 11.25 17.7234 11.7537 17.7234 12.375C17.7234 12.9963 18.2271 13.5 18.8484 13.5Z" fill="#222021"/>
<path d="M6.84839 13.5C7.46971 13.5 7.97339 12.9963 7.97339 12.375C7.97339 11.7537 7.46971 11.25 6.84839 11.25C6.22707 11.25 5.72339 11.7537 5.72339 12.375C5.72339 12.9963 6.22707 13.5 6.84839 13.5Z" fill="#222021"/>
</svg>
