<svg width="43" height="43" viewBox="0 0 43 43" fill="none" xmlns="http://www.w3.org/2000/svg">
<path opacity="0.2" d="M18.3906 23.9014H7.23438C6.88628 23.9014 6.55244 23.7631 6.3063 23.5169C6.06016 23.2708 5.92188 22.937 5.92188 22.5889V12.0889C5.92188 11.7408 6.06016 11.4069 6.3063 11.1608C6.55244 10.9146 6.88628 10.7764 7.23438 10.7764H17.0781C17.4262 10.7764 17.7601 10.9146 18.0062 11.1608C18.2523 11.4069 18.3906 11.7408 18.3906 12.0889V23.9014Z" fill="#0052CC"/>
<path opacity="0.2" d="M37.4219 23.9014H26.2656C25.9175 23.9014 25.5837 23.7631 25.3375 23.5169C25.0914 23.2708 24.9531 22.937 24.9531 22.5889V12.0889C24.9531 11.7408 25.0914 11.4069 25.3375 11.1608C25.5837 10.9146 25.9175 10.7764 26.2656 10.7764H36.1094C36.4575 10.7764 36.7913 10.9146 37.0375 11.1608C37.2836 11.4069 37.4219 11.7408 37.4219 12.0889V23.9014Z" fill="#0052CC"/>
<path d="M18.3906 23.9014H7.23438C6.88628 23.9014 6.55244 23.7631 6.3063 23.5169C6.06016 23.2708 5.92188 22.937 5.92188 22.5889V12.0889C5.92188 11.7408 6.06016 11.4069 6.3063 11.1608C6.55244 10.9146 6.88628 10.7764 7.23438 10.7764H17.0781C17.4262 10.7764 17.7601 10.9146 18.0062 11.1608C18.2523 11.4069 18.3906 11.7408 18.3906 12.0889V26.5264C18.3906 28.2669 17.6992 29.936 16.4685 31.1668C15.2378 32.3975 13.5686 33.0889 11.8281 33.0889" stroke="#0052CC" stroke-width="2.25" stroke-linecap="round" stroke-linejoin="round"/>
<path d="M37.4219 23.9014H26.2656C25.9175 23.9014 25.5837 23.7631 25.3375 23.5169C25.0914 23.2708 24.9531 22.937 24.9531 22.5889V12.0889C24.9531 11.7408 25.0914 11.4069 25.3375 11.1608C25.5837 10.9146 25.9175 10.7764 26.2656 10.7764H36.1094C36.4575 10.7764 36.7913 10.9146 37.0375 11.1608C37.2836 11.4069 37.4219 11.7408 37.4219 12.0889V26.5264C37.4219 28.2669 36.7305 29.936 35.4998 31.1668C34.2691 32.3975 32.5999 33.0889 30.8594 33.0889" stroke="#0052CC" stroke-width="2.25" stroke-linecap="round" stroke-linejoin="round"/>
</svg>
