<svg width="24" height="24" viewBox="0 0 24 24" fill="none" xmlns="http://www.w3.org/2000/svg">
<path d="M9.54651 17.3859C9.51089 17.5312 8.63339 20.8125 3.74995 20.8125C3.60076 20.8125 3.45769 20.7532 3.3522 20.6477C3.24671 20.5423 3.18745 20.3992 3.18745 20.25C3.18745 15.3666 6.47432 14.4891 6.61401 14.4544C6.75771 14.421 6.90875 14.4455 7.03459 14.5225C7.16043 14.5995 7.25099 14.7228 7.28677 14.8659C7.32255 15.009 7.30067 15.1605 7.22587 15.2876C7.15106 15.4147 7.0293 15.5074 6.88682 15.5456C6.79307 15.5709 4.55807 16.2094 4.3312 19.6706C7.83182 19.4391 8.4487 17.1394 8.4562 17.115C8.49237 16.9702 8.58461 16.8456 8.7126 16.7688C8.84059 16.692 8.99387 16.6691 9.1387 16.7053C9.28353 16.7415 9.40806 16.8337 9.48489 16.9617C9.56172 17.0897 9.58456 17.243 9.54839 17.3878L9.54651 17.3859ZM18.3149 10.9809L17.8124 11.4825V17.0297C17.8128 17.202 17.779 17.3726 17.713 17.5317C17.6471 17.6909 17.5502 17.8354 17.4281 17.9569L14.2078 21.1772C14.0356 21.3492 13.8189 21.47 13.582 21.526C13.3451 21.582 13.0973 21.571 12.8663 21.4943C12.6352 21.4176 12.4301 21.2781 12.2738 21.0914C12.1175 20.9048 12.0162 20.6784 11.9812 20.4375L11.4693 16.7672L7.23557 12.5306L3.56714 12.0187C3.32566 11.9846 3.09847 11.8838 2.91107 11.7277C2.72366 11.5717 2.58344 11.3665 2.50614 11.1352C2.42885 10.9039 2.41753 10.6556 2.47345 10.4182C2.52938 10.1808 2.65034 9.96372 2.82276 9.79124L6.04307 6.57093C6.16462 6.44892 6.30914 6.35221 6.46828 6.2864C6.62743 6.22058 6.79804 6.18697 6.97026 6.18749H12.5174L13.019 5.68593C15.4668 3.23812 18.4162 3.13312 19.5703 3.20156C19.8896 3.22127 20.1908 3.35697 20.4171 3.58313C20.6434 3.80929 20.7794 4.11034 20.7993 4.42968C20.8678 5.58374 20.7618 8.53124 18.3149 10.9809ZM3.72464 10.905L7.30026 11.4037L11.3924 7.31249H6.97026C6.92061 7.3127 6.87308 7.33259 6.83807 7.36781L3.6187 10.5862C3.59476 10.6104 3.57784 10.6406 3.56974 10.6736C3.56165 10.7067 3.5627 10.7413 3.57276 10.7737C3.58229 10.8082 3.6018 10.839 3.62883 10.8624C3.65586 10.8857 3.68919 10.9006 3.72464 10.905ZM16.6874 12.6075L12.5953 16.6997L13.094 20.2772C13.0992 20.3116 13.1138 20.3439 13.1363 20.3705C13.1587 20.397 13.1882 20.4168 13.2213 20.4276C13.2543 20.4384 13.2898 20.4398 13.3236 20.4316C13.3574 20.4234 13.3883 20.406 13.4128 20.3812L16.6321 17.1619C16.6673 17.1269 16.6872 17.0793 16.6874 17.0297V12.6075ZM19.6762 4.49999C19.6726 4.4557 19.6533 4.41414 19.6219 4.38272C19.5905 4.3513 19.5489 4.33206 19.5046 4.32843C18.4573 4.26121 17.4078 4.41885 16.4264 4.79076C15.4451 5.16266 14.5546 5.74023 13.8149 6.48468L8.29589 12L11.9999 15.7041L16.8524 10.8525L17.519 10.1859C18.2631 9.44674 18.8406 8.55697 19.2126 7.5763C19.5847 6.59564 19.7428 5.54675 19.6762 4.49999Z" fill="#3C3C43"/>
</svg>
