<svg width="71" height="71" viewBox="0 0 71 71" fill="none" xmlns="http://www.w3.org/2000/svg">
<rect x="0.705078" y="1.41016" width="69" height="69" rx="34.5" stroke="white"/>
<path d="M55.2107 35.9089C55.2107 46.9376 46.2387 55.9102 35.2095 55.9102C31.6767 55.9102 28.2058 54.9782 25.168 53.2108C24.3839 52.7566 24.1139 51.7454 24.5703 50.9613C25.0245 50.1772 26.0357 49.9072 26.8198 50.3636C29.3542 51.8397 32.255 52.6173 35.205 52.6173C44.4194 52.6173 51.9155 45.119 51.9155 35.9068C51.9155 26.6924 44.4172 19.1962 35.205 19.1962C25.9906 19.1962 18.4944 26.6946 18.4944 35.9068C18.4944 38.7261 19.2078 41.507 20.5575 43.958C20.9967 44.7528 20.7053 45.7575 19.9105 46.1946C19.1157 46.6338 18.1109 46.3424 17.6739 45.5476C16.0564 42.6125 15.1995 39.2788 15.1995 35.9114C15.1995 24.8827 24.1715 15.9102 35.2007 15.9102C46.2299 15.9102 55.2019 24.8822 55.2019 35.9114L55.2107 35.9089ZM22.015 47.0149C21.1045 47.0149 20.3697 47.7497 20.3697 48.6603C20.3697 49.5708 21.1045 50.3056 22.015 50.3056C22.9255 50.3056 23.6603 49.5708 23.6603 48.6603C23.6603 47.7497 22.9255 47.0149 22.015 47.0149ZM35.21 24.5501C34.2995 24.5501 33.5647 25.2849 33.5647 26.1954V35.9089C33.5647 36.3481 33.7404 36.7637 34.0467 37.0722L39.3769 42.4089C39.7004 42.7324 40.1182 42.8909 40.5402 42.8909C40.9623 42.8909 41.3844 42.7324 41.7036 42.4089C42.3463 41.7661 42.3463 40.725 41.7036 40.0844L36.8489 35.2298V26.1974C36.8489 25.2869 36.1141 24.5521 35.2036 24.5521L35.21 24.5501Z" fill="white"/>
</svg>
