<svg width="14" height="15" viewBox="0 0 14 15" fill="none" xmlns="http://www.w3.org/2000/svg">
<path d="M6.78552 9.66666C7.89009 9.66666 8.78552 8.77123 8.78552 7.66666C8.78552 6.56209 7.89009 5.66666 6.78552 5.66666C5.68095 5.66666 4.78552 6.56209 4.78552 7.66666C4.78552 8.77123 5.68095 9.66666 6.78552 9.66666Z" stroke="#1C274C"/>
<path d="M7.96241 1.10149C7.71735 1 7.40675 1 6.78548 1C6.16421 1 5.85361 1 5.60855 1.10149C5.28186 1.23682 5.02229 1.49639 4.88697 1.82309C4.82519 1.97223 4.80101 2.14567 4.79155 2.39866C4.77765 2.77045 4.58699 3.11459 4.26477 3.30062C3.94257 3.48664 3.54921 3.47969 3.22027 3.30584C2.99645 3.18753 2.83415 3.12175 2.67411 3.10068C2.32351 3.05452 1.96893 3.14953 1.68839 3.3648C1.47797 3.52625 1.32266 3.79527 1.01203 4.33329C0.701407 4.87131 0.546093 5.14032 0.511473 5.40327C0.46532 5.75387 0.560327 6.10844 0.7756 6.389C0.873853 6.51707 1.01195 6.62467 1.22627 6.75933C1.54135 6.95733 1.74407 7.2946 1.74405 7.66667C1.74403 8.03873 1.54131 8.37593 1.22627 8.57387C1.01191 8.7086 0.8738 8.81627 0.775533 8.94433C0.56026 9.22487 0.465253 9.5794 0.511413 9.93C0.546027 10.1929 0.70134 10.462 1.01197 11C1.3226 11.538 1.47791 11.8071 1.68832 11.9685C1.96887 12.1837 2.32344 12.2787 2.67404 12.2326C2.83407 12.2115 2.99636 12.1457 3.22017 12.0275C3.54913 11.8536 3.94252 11.8467 4.26475 12.0327C4.58697 12.2187 4.77765 12.5629 4.79155 12.9347C4.80102 13.1877 4.82519 13.3611 4.88697 13.5103C5.02229 13.8369 5.28186 14.0965 5.60855 14.2319C5.85361 14.3333 6.16421 14.3333 6.78548 14.3333C7.40675 14.3333 7.71735 14.3333 7.96241 14.2319C8.28908 14.0965 8.54868 13.8369 8.68395 13.5103C8.74575 13.3611 8.76995 13.1877 8.77941 12.9347C8.79328 12.5629 8.98395 12.2187 9.30615 12.0327C9.62835 11.8466 10.0217 11.8536 10.3507 12.0275C10.5745 12.1457 10.7368 12.2115 10.8968 12.2325C11.2474 12.2787 11.602 12.1837 11.8825 11.9685C12.0929 11.807 12.2483 11.538 12.5589 10.9999C12.8695 10.4619 13.0249 10.1929 13.0595 9.93C13.1056 9.5794 13.0106 9.2248 12.7953 8.94427C12.6971 8.8162 12.5589 8.70853 12.3446 8.57387C12.0296 8.37593 11.8269 8.03867 11.8269 7.6666C11.8269 7.29453 12.0296 6.9574 12.3446 6.75947C12.559 6.62473 12.6971 6.51713 12.7954 6.389C13.0107 6.10849 13.1057 5.75391 13.0595 5.40331C13.0249 5.14037 12.8696 4.87135 12.5589 4.33333C12.2483 3.79531 12.093 3.5263 11.8826 3.36485C11.6021 3.14957 11.2475 3.05457 10.8969 3.10073C10.7369 3.12179 10.5746 3.18757 10.3507 3.30587C10.0218 3.47973 9.62841 3.48668 9.30621 3.30064C8.98395 3.11461 8.79328 2.77044 8.77941 2.39863C8.76995 2.14565 8.74575 1.97222 8.68395 1.82309C8.54868 1.49639 8.28908 1.23682 7.96241 1.10149Z" stroke="#1C274C"/>
</svg>
