<svg width="20" height="17" viewBox="0 0 20 17" fill="none" xmlns="http://www.w3.org/2000/svg">
<path d="M19.9013 1.49431C19.9012 1.41366 19.8796 1.33445 19.8386 1.26472C19.7976 1.195 19.7386 1.13725 19.6676 1.09733C19.5967 1.05742 19.5163 1.03676 19.4347 1.03747C19.3531 1.03817 19.2731 1.06021 19.2029 1.10134C18.5519 1.48434 17.8448 1.76549 17.1067 1.9348C16.3002 1.17401 15.2266 0.751482 14.1115 0.755894C13.5058 0.756743 12.9069 0.881794 12.3527 1.12313C11.7984 1.36447 11.3009 1.71684 10.8916 2.15795C10.4824 2.59905 10.1702 3.11928 9.97499 3.68572C9.77974 4.25216 9.70563 4.85248 9.75736 5.44868C6.9611 5.15508 4.39543 3.78211 2.61888 1.62865C2.57146 1.57144 2.5107 1.52645 2.44181 1.49755C2.37292 1.46865 2.29796 1.4567 2.22336 1.46272C2.14877 1.46874 2.07676 1.49256 2.01354 1.53212C1.95031 1.57169 1.89774 1.62582 1.86036 1.68988C1.47658 2.35107 1.2747 3.1 1.27481 3.86218C1.27368 4.69869 1.51856 5.5175 1.97968 6.21908L1.92418 6.18892C1.85171 6.15377 1.77124 6.13782 1.69065 6.14263C1.61006 6.14743 1.53211 6.17283 1.46444 6.21634C1.39393 6.26163 1.33607 6.32368 1.29615 6.39682C1.25622 6.46995 1.23553 6.55181 1.23596 6.6349C1.23226 6.74273 1.23873 6.85149 1.25631 6.9575C1.30003 7.56086 1.47247 8.14826 1.76231 8.6811C2.05215 9.21395 2.45283 9.68017 2.93802 10.0492C2.87888 10.0664 2.82382 10.0951 2.77608 10.1336C2.72833 10.1721 2.68887 10.2197 2.66 10.2735C2.63113 10.3273 2.61343 10.3863 2.60796 10.4469C2.60249 10.5076 2.60935 10.5687 2.62813 10.6267C2.84182 11.285 3.21304 11.8826 3.7103 12.369C4.20757 12.8553 4.81622 13.216 5.48463 13.4205C4.11974 14.1754 2.54776 14.4835 0.994525 14.3005C0.890441 14.2877 0.785023 14.3101 0.695571 14.3643C0.606118 14.4184 0.537944 14.5009 0.502235 14.5984C0.466526 14.6958 0.465404 14.8024 0.499052 14.9005C0.5327 14.9987 0.599121 15.0826 0.687414 15.1386C2.54622 16.321 4.7104 16.9495 6.92121 16.949C9.42913 16.9763 11.8759 16.1842 13.8811 14.6957C15.8862 13.2073 17.3373 11.106 18.0086 8.71855C18.3222 7.67946 18.4823 6.60017 18.4841 5.51539C18.4841 5.40572 18.4841 5.29149 18.4813 5.17543C18.9624 4.69214 19.337 4.11562 19.5814 3.48222C19.8258 2.84882 19.9347 2.17136 19.9013 1.49431Z" fill="white"/>
</svg>
